<?xml version="1.0" encoding="UTF-8" standalone="no"?>
<svg width="1200" height="630" viewBox="0 0 1200 630" xmlns="http://www.w3.org/2000/svg">
  <rect width="1200" height="630" fill="#f8f9fa"/>
  
  <!-- Title -->
  <text x="600" y="100" font-family="Arial, sans-serif" font-size="48" font-weight="bold" text-anchor="middle" fill="#333">Marquee Horizontal React</text>
  <text x="600" y="160" font-family="Arial, sans-serif" font-size="24" text-anchor="middle" fill="#666">Smooth scrolling logo animation component</text>
  
  <!-- Marquee Frame -->
  <rect x="150" y="220" width="900" height="200" rx="10" ry="10" fill="#fff" stroke="#ddd" stroke-width="2"/>
  
  <!-- Arrow indicators -->
  <polygon points="120,320 140,300 140,340" fill="#05BDBA"/>
  <polygon points="1080,320 1060,300 1060,340" fill="#05BDBA"/>
  
  <!-- Logos in marquee -->
  <g transform="translate(200, 320)">
    <!-- GitHub Logo -->
    <g transform="scale(0.4)">
      <path d="M205.3 31.4c14 14.8 20 35.2 22.5 63.6 6.6 0 12.8 1.5 17 7.2l7.8 10.6c2.2 3 3.4 6.6 3.4 10.4v28.7a12 12 0 0 1-4.8 9.5C215.9 187.2 172.3 208 128 208c-49 0-98.2-28.3-123.2-46.6a12 12 0 0 1-4.8-9.5v-28.7c0-3.8 1.2-7.4 3.4-10.5l7.8-10.5c4.2-5.7 10.4-7.2 17-7.2 2.5-28.4 8.4-48.8 22.5-63.6C77.3 3.2 112.6 0 127.6 0h.4c14.7 0 50.4 2.9 77.3 31.4Z" fill="#333"/>
    </g>
  </g>
  
  <g transform="translate(400, 320)">
    <!-- React Logo -->
    <g transform="scale(0.4)">
      <path d="M128 0l128 73.9v147.8l-128 73.9L0 221.7V73.9z" fill="#673AB8"/>
      <path d="M127.552 167.667c10.827 0 19.603-8.777 19.603-19.604 0-10.826-8.776-19.603-19.603-19.603-10.827 0-19.604 8.777-19.604 19.603 0 10.827 8.777 19.604 19.604 19.604Z" fill="#FFF"/>
    </g>
  </g>
  
  <g transform="translate(600, 320)">
    <!-- Netlify Logo -->
    <g transform="scale(0.4)">
      <path fill="#05BDBA" d="M69.181 188.087h-2.417l-12.065-12.065v-2.417l18.444-18.444h12.778l1.704 1.704v12.778zM54.699 51.628v-2.417l12.065-12.065h2.417L87.625 55.59v12.778l-1.704 1.704H73.143z"/>
      <path fill="#014847" d="M160.906 149.198h-17.552l-1.466-1.466v-41.089c0-7.31-2.873-12.976-11.689-13.174-4.537-.119-9.727 0-15.274.218l-.833.852v53.173l-1.466 1.466H95.074l-1.466-1.466v-70.19l1.466-1.467h39.503c15.354 0 27.795 12.441 27.795 27.795v43.882l-1.466 1.466Z"/>
      <path fill="#05BDBA" d="M71.677 122.889H1.466L0 121.423V103.83l1.466-1.466h70.211l1.466 1.466v17.593zM254.534 122.889h-70.211l-1.466-1.466V103.83l1.466-1.466h70.211L256 103.83v17.593zM117.876 54.124V1.466L119.342 0h17.593l1.466 1.466v52.658l-1.466 1.466h-17.593zM117.876 223.787v-52.658l1.466-1.466h17.593l1.466 1.466v52.658l-1.466 1.465h-17.593z"/>
    </g>
  </g>
  
  <g transform="translate(800, 320)">
    <!-- Framer Logo -->
    <g transform="scale(0.4)">
      <path d="M0 0h256v128H128L0 0Zm0 128h128l128 128H128v128L0 256V128Z" fill="#333"/>
    </g>
  </g>
  
  <!-- Motion lines -->
  <line x1="180" y1="420" x2="220" y2="420" stroke="#05BDBA" stroke-width="3" stroke-dasharray="5,5"/>
  <line x1="380" y1="420" x2="420" y2="420" stroke="#05BDBA" stroke-width="3" stroke-dasharray="5,5"/>
  <line x1="580" y1="420" x2="620" y2="420" stroke="#05BDBA" stroke-width="3" stroke-dasharray="5,5"/>
  <line x1="780" y1="420" x2="820" y2="420" stroke="#05BDBA" stroke-width="3" stroke-dasharray="5,5"/>
  <line x1="980" y1="420" x2="1020" y2="420" stroke="#05BDBA" stroke-width="3" stroke-dasharray="5,5"/>
  
  <!-- Footer -->
  <text x="600" y="500" font-family="Arial, sans-serif" font-size="24" text-anchor="middle" fill="#666">Built with React and Framer Motion</text>
  <text x="600" y="540" font-family="Arial, sans-serif" font-size="18" text-anchor="middle" fill="#999">https://github.com/alexanderuk82/marquee-horizontal-react</text>
</svg>
